# Blender 4.5.3 LTS
# www.blender.org
o Cube.002
v -42.030003 13.295863 9.825733
v -42.030003 14.327294 9.825733
v -42.030003 13.295863 -9.825733
v -42.030003 14.327294 -9.825733
v 36.770000 13.295863 9.825733
v 36.770000 14.327294 9.825733
v 36.770000 13.295863 -9.825733
v 36.770000 14.327294 -9.825733
vn -1.0000 -0.0000 -0.0000
vn -0.0000 -0.0000 -1.0000
vn 1.0000 -0.0000 -0.0000
vn -0.0000 -0.0000 1.0000
vn -0.0000 -1.0000 -0.0000
vn -0.0000 1.0000 -0.0000
vt 0.375000 0.000000
vt 0.625000 0.000000
vt 0.625000 0.250000
vt 0.375000 0.250000
vt 0.625000 0.500000
vt 0.375000 0.500000
vt 0.625000 0.750000
vt 0.375000 0.750000
vt 0.625000 1.000000
vt 0.375000 1.000000
vt 0.125000 0.500000
vt 0.125000 0.750000
vt 0.875000 0.500000
vt 0.875000 0.750000
s 0
f 1/1/1 2/2/1 4/3/1 3/4/1
f 3/4/2 4/3/2 8/5/2 7/6/2
f 7/6/3 8/5/3 6/7/3 5/8/3
f 5/8/4 6/7/4 2/9/4 1/10/4
f 3/11/5 7/6/5 5/8/5 1/12/5
f 8/5/6 4/13/6 2/14/6 6/7/6
o Cube
v -42.000000 13.753656 -8.337871
v 0.000000 13.359992 -6.632723
v -21.000000 13.528706 -7.363501
v 10.500000 13.528706 -7.363501
v -10.500000 13.359992 -6.632723
v 31.500000 13.528706 -7.363501
v -36.750000 13.359992 -6.632723
v 5.250000 13.528706 -7.363501
v -15.750000 13.528706 -7.363501
v 26.250000 13.359992 -6.632723
v -26.250000 13.359992 -6.632723
v 15.750000 13.359992 -6.632723
v 36.750000 13.528706 -7.363501
v -39.375000 13.359992 -6.632723
v 2.625000 13.359992 -6.632723
v 23.625000 13.528706 -7.363501
v -28.875000 13.528706 -7.363501
v 13.125000 13.359992 -6.632723
v -7.875000 13.528706 -7.363501
v -34.125000 13.528706 -7.363501
v -13.125000 13.359992 -6.632723
v 28.875000 13.359992 -6.632723
v -23.625000 13.359992 -6.632723
v 18.375000 13.528706 -7.363501
v -2.625000 13.528706 -7.363501
v -42.000000 -63.156746 -26.094036
v -2.625000 -63.381699 -25.119667
v 0.000000 -63.550411 -24.388889
v 18.375000 -63.381699 -25.119667
v -23.625000 -63.550411 -24.388889
v -21.000000 -63.381699 -25.119667
v 28.875000 -63.550411 -24.388889
v 31.500000 -63.381699 -25.119667
v -13.125000 -63.550411 -24.388889
v -10.500000 -63.550411 -24.388889
v 10.500000 -63.381699 -25.119667
v -34.125000 -63.381699 -25.119667
v 36.750000 -63.381699 -25.119667
v -7.875000 -63.381699 -25.119667
v 13.125000 -63.550411 -24.388889
v 15.750000 -63.550411 -24.388889
v -28.875000 -63.381699 -25.119667
v -26.250000 -63.550411 -24.388889
v 23.625000 -63.381699 -25.119667
v 26.250000 -63.550411 -24.388889
v -15.750000 -63.381699 -25.119667
v 2.625000 -63.550411 -24.388889
v 5.250000 -63.381699 -25.119667
v -39.375000 -63.550411 -24.388889
v -36.750000 -63.550411 -24.388889
v 36.750000 -63.156746 -26.094036
v 36.750004 13.753656 -8.337871
vn -0.0000 -0.2250 0.9744
vn 0.2747 -0.2163 0.9369
vn -0.2747 -0.2163 0.9369
vn -0.5547 -0.1872 0.8107
vn -0.0000 -0.9744 -0.2250
vn -0.0000 0.9744 0.2250
vn -0.0000 0.2250 -0.9744
vn 1.0000 -0.0000 -0.0000
vt 0.375000 0.804688
vt 0.625000 0.804688
vt 0.625000 0.820312
vt 0.375000 0.820312
vt 0.375000 0.976562
vt 0.625000 0.976562
vt 0.625000 0.984375
vt 0.375000 0.984375
vt 0.375000 0.781250
vt 0.625000 0.781250
vt 0.625000 0.789062
vt 0.375000 0.789062
vt 0.375000 0.882812
vt 0.625000 0.882812
vt 0.625000 0.898438
vt 0.375000 0.898438
vt 0.625000 0.828125
vt 0.625000 0.835938
vt 0.375000 0.835938
vt 0.375000 0.828125
vt 0.625000 0.914062
vt 0.625000 0.921875
vt 0.375000 0.921875
vt 0.375000 0.914062
vt 0.625000 0.875000
vt 0.375000 0.875000
vt 0.375000 0.960938
vt 0.625000 0.960938
vt 0.625000 0.992188
vt 0.375000 0.992188
vt 0.625000 0.937500
vt 0.375000 0.937500
vt 0.625000 0.945312
vt 0.625000 0.953125
vt 0.375000 0.953125
vt 0.375000 0.945312
vt 0.625000 0.906250
vt 0.375000 0.906250
vt 0.375000 0.859375
vt 0.625000 0.859375
vt 0.625000 0.867188
vt 0.375000 0.867188
vt 0.625000 0.796875
vt 0.375000 0.796875
vt 0.625000 0.843750
vt 0.375000 0.843750
vt 0.375000 0.765625
vt 0.625000 0.765625
vt 0.625000 0.250000
vt 0.375000 0.250000
vt 0.125000 0.500000
vt 0.359375 0.500000
vt 0.359375 0.750000
vt 0.343750 0.750000
vt 0.335938 0.750000
vt 0.328125 0.750000
vt 0.320312 0.750000
vt 0.304688 0.750000
vt 0.296875 0.750000
vt 0.289062 0.750000
vt 0.281250 0.750000
vt 0.265625 0.750000
vt 0.257812 0.750000
vt 0.250000 0.750000
vt 0.242188 0.750000
vt 0.226562 0.750000
vt 0.218750 0.750000
vt 0.210938 0.750000
vt 0.203125 0.750000
vt 0.187500 0.750000
vt 0.179688 0.750000
vt 0.171875 0.750000
vt 0.164062 0.750000
vt 0.148438 0.750000
vt 0.140625 0.750000
vt 0.132812 0.750000
vt 0.640625 0.750000
vt 0.640625 0.500000
vt 0.875000 0.500000
vt 0.867188 0.750000
vt 0.859375 0.750000
vt 0.851562 0.750000
vt 0.835938 0.750000
vt 0.828125 0.750000
vt 0.820312 0.750000
vt 0.812500 0.750000
vt 0.796875 0.750000
vt 0.789062 0.750000
vt 0.781250 0.750000
vt 0.773438 0.750000
vt 0.757812 0.750000
vt 0.750000 0.750000
vt 0.742188 0.750000
vt 0.734375 0.750000
vt 0.718750 0.750000
vt 0.710938 0.750000
vt 0.703125 0.750000
vt 0.695312 0.750000
vt 0.679688 0.750000
vt 0.671875 0.750000
vt 0.664062 0.750000
vt 0.656250 0.750000
vt 0.625000 0.484375
vt 0.375000 0.484375
s 0
f 52/15/7 24/16/7 32/17/7 37/18/7
f 45/19/8 28/20/8 15/21/8 58/22/8
f 41/23/8 14/24/8 30/25/8 40/26/8
f 35/27/7 33/28/7 27/29/7 47/30/7
f 20/31/7 26/32/7 48/33/7 49/34/7
f 29/35/9 17/36/9 54/37/9 42/38/9
f 10/39/9 33/28/9 35/27/9 36/40/9
f 50/41/7 25/42/7 28/20/7 45/19/7
f 15/21/7 22/43/7 57/44/7 58/22/7
f 17/36/7 11/45/7 39/46/7 54/37/7
f 31/47/7 19/48/7 51/49/7 38/50/7
f 47/30/8 27/29/8 13/51/8 43/52/8
f 56/53/8 16/54/8 23/55/8 55/56/8
f 18/57/9 24/16/9 52/15/9 53/58/9
f 26/32/9 12/59/9 44/60/9 48/33/9
f 19/48/9 25/42/9 50/41/9 51/49/9
f 30/25/7 18/57/7 53/58/7 40/26/7
f 56/53/7 44/60/7 12/59/7 16/54/7
f 55/56/7 23/55/7 10/39/7 36/40/7
f 46/61/7 21/62/7 14/24/7 41/23/7
f 32/17/8 20/31/8 49/34/8 37/18/8
f 11/45/8 31/47/8 38/50/8 39/46/8
f 22/43/10 9/63/10 34/64/10 57/44/10
f 13/51/7 29/35/7 42/38/7 43/52/7
f 34/65/11 59/66/11 46/67/11 41/68/11 40/69/11 53/70/11 52/71/11 37/72/11 49/73/11 48/74/11 44/75/11 56/76/11 55/77/11 36/78/11 35/79/11 47/80/11 43/81/11 42/82/11 54/83/11 39/84/11 38/85/11 51/86/11 50/87/11 45/88/11 58/89/11 57/90/11
f 21/91/12 60/92/12 9/93/12 22/94/12 15/95/12 28/96/12 25/97/12 19/98/12 31/99/12 11/100/12 17/101/12 29/102/12 13/103/12 27/104/12 33/105/12 10/106/12 23/107/12 16/108/12 12/109/12 26/110/12 20/111/12 32/112/12 24/113/12 18/114/12 30/115/12 14/116/12
f 60/117/13 59/118/13 34/64/13 9/63/13
f 21/91/14 46/67/14 59/118/14 60/92/14
o Cube.001
v -42.000000 13.753656 8.337870
v 0.000000 13.359992 6.632722
v -21.000000 13.528706 7.363500
v 10.500000 13.528706 7.363500
v -10.500000 13.359992 6.632722
v 31.500000 13.528706 7.363500
v -36.750000 13.359992 6.632722
v 5.250000 13.528706 7.363500
v -15.750000 13.528706 7.363500
v 26.250000 13.359992 6.632722
v -26.250000 13.359992 6.632722
v 15.750000 13.359992 6.632722
v 36.750000 13.528706 7.363500
v -39.375000 13.359992 6.632722
v 2.625000 13.359992 6.632722
v 23.625000 13.528706 7.363500
v -28.875000 13.528706 7.363500
v 13.125000 13.359992 6.632722
v -7.875000 13.528706 7.363500
v -34.125000 13.528706 7.363500
v -13.125000 13.359992 6.632722
v 28.875000 13.359992 6.632722
v -23.625000 13.359992 6.632722
v 18.375000 13.528706 7.363500
v -2.625000 13.528706 7.363500
v -42.000000 -63.156746 26.094038
v -2.625000 -63.381699 25.119667
v 0.000000 -63.550411 24.388891
v 18.375000 -63.381699 25.119667
v -23.625000 -63.550411 24.388891
v -21.000000 -63.381699 25.119667
v 28.875000 -63.550411 24.388891
v 31.500000 -63.381699 25.119667
v -13.125000 -63.550411 24.388891
v -10.500000 -63.550411 24.388891
v 10.500000 -63.381699 25.119667
v -34.125000 -63.381699 25.119667
v 36.750000 -63.381699 25.119667
v -7.875000 -63.381699 25.119667
v 13.125000 -63.550411 24.388891
v 15.750000 -63.550411 24.388891
v -28.875000 -63.381699 25.119667
v -26.250000 -63.550411 24.388891
v 23.625000 -63.381699 25.119667
v 26.250000 -63.550411 24.388891
v -15.750000 -63.381699 25.119667
v 2.625000 -63.550411 24.388891
v 5.250000 -63.381699 25.119667
v -39.375000 -63.550411 24.388891
v -36.750000 -63.550411 24.388891
v 36.750000 -63.156746 26.094038
v 36.750004 13.753656 8.337870
vn -0.0000 -0.2250 -0.9744
vn 0.2747 -0.2163 -0.9369
vn -0.2747 -0.2163 -0.9369
vn -0.5547 -0.1872 -0.8107
vn -0.0000 -0.9744 0.2250
vn -0.0000 0.9744 -0.2250
vn -0.0000 0.2250 0.9744
vn 1.0000 -0.0000 -0.0000
vt 0.375000 0.804688
vt 0.625000 0.804688
vt 0.625000 0.820312
vt 0.375000 0.820312
vt 0.375000 0.976562
vt 0.625000 0.976562
vt 0.625000 0.984375
vt 0.375000 0.984375
vt 0.375000 0.781250
vt 0.625000 0.781250
vt 0.625000 0.789062
vt 0.375000 0.789062
vt 0.375000 0.882812
vt 0.625000 0.882812
vt 0.625000 0.898438
vt 0.375000 0.898438
vt 0.625000 0.828125
vt 0.625000 0.835938
vt 0.375000 0.835938
vt 0.375000 0.828125
vt 0.625000 0.914062
vt 0.625000 0.921875
vt 0.375000 0.921875
vt 0.375000 0.914062
vt 0.625000 0.875000
vt 0.375000 0.875000
vt 0.375000 0.960938
vt 0.625000 0.960938
vt 0.625000 0.992188
vt 0.375000 0.992188
vt 0.625000 0.937500
vt 0.375000 0.937500
vt 0.625000 0.945312
vt 0.625000 0.953125
vt 0.375000 0.953125
vt 0.375000 0.945312
vt 0.625000 0.906250
vt 0.375000 0.906250
vt 0.375000 0.859375
vt 0.625000 0.859375
vt 0.625000 0.867188
vt 0.375000 0.867188
vt 0.625000 0.796875
vt 0.375000 0.796875
vt 0.625000 0.843750
vt 0.375000 0.843750
vt 0.375000 0.765625
vt 0.625000 0.765625
vt 0.625000 0.250000
vt 0.375000 0.250000
vt 0.125000 0.500000
vt 0.359375 0.500000
vt 0.359375 0.750000
vt 0.343750 0.750000
vt 0.335938 0.750000
vt 0.328125 0.750000
vt 0.320312 0.750000
vt 0.304688 0.750000
vt 0.296875 0.750000
vt 0.289062 0.750000
vt 0.281250 0.750000
vt 0.265625 0.750000
vt 0.257812 0.750000
vt 0.250000 0.750000
vt 0.242188 0.750000
vt 0.226562 0.750000
vt 0.218750 0.750000
vt 0.210938 0.750000
vt 0.203125 0.750000
vt 0.187500 0.750000
vt 0.179688 0.750000
vt 0.171875 0.750000
vt 0.164062 0.750000
vt 0.148438 0.750000
vt 0.140625 0.750000
vt 0.132812 0.750000
vt 0.640625 0.750000
vt 0.640625 0.500000
vt 0.875000 0.500000
vt 0.867188 0.750000
vt 0.859375 0.750000
vt 0.851562 0.750000
vt 0.835938 0.750000
vt 0.828125 0.750000
vt 0.820312 0.750000
vt 0.812500 0.750000
vt 0.796875 0.750000
vt 0.789062 0.750000
vt 0.781250 0.750000
vt 0.773438 0.750000
vt 0.757812 0.750000
vt 0.750000 0.750000
vt 0.742188 0.750000
vt 0.734375 0.750000
vt 0.718750 0.750000
vt 0.710938 0.750000
vt 0.703125 0.750000
vt 0.695312 0.750000
vt 0.679688 0.750000
vt 0.671875 0.750000
vt 0.664062 0.750000
vt 0.656250 0.750000
vt 0.625000 0.484375
vt 0.375000 0.484375
s 0
f 104/119/15 89/122/15 84/121/15 76/120/15
f 97/123/16 110/126/16 67/125/16 80/124/16
f 93/127/16 92/130/16 82/129/16 66/128/16
f 87/131/15 99/134/15 79/133/15 85/132/15
f 72/135/15 101/138/15 100/137/15 78/136/15
f 81/139/17 94/142/17 106/141/17 69/140/17
f 62/143/17 88/144/17 87/131/17 85/132/17
f 102/145/15 97/123/15 80/124/15 77/146/15
f 67/125/15 110/126/15 109/148/15 74/147/15
f 69/140/15 106/141/15 91/150/15 63/149/15
f 83/151/15 90/154/15 103/153/15 71/152/15
f 99/134/16 95/156/16 65/155/16 79/133/16
f 108/157/16 107/160/16 75/159/16 68/158/16
f 70/161/17 105/162/17 104/119/17 76/120/17
f 78/136/17 100/137/17 96/164/17 64/163/17
f 71/152/17 103/153/17 102/145/17 77/146/17
f 82/129/15 92/130/15 105/162/15 70/161/15
f 108/157/15 68/158/15 64/163/15 96/164/15
f 107/160/15 88/144/15 62/143/15 75/159/15
f 98/165/15 93/127/15 66/128/15 73/166/15
f 84/121/16 89/122/16 101/138/16 72/135/16
f 63/149/16 91/150/16 90/154/16 83/151/16
f 74/147/18 109/148/18 86/168/18 61/167/18
f 65/155/15 95/156/15 94/142/15 81/139/15
f 86/169/19 109/194/19 110/193/19 97/192/19 102/191/19 103/190/19 90/189/19 91/188/19 106/187/19 94/186/19 95/185/19 99/184/19 87/183/19 88/182/19 107/181/19 108/180/19 96/179/19 100/178/19 101/177/19 89/176/19 104/175/19 105/174/19 92/173/19 93/172/19 98/171/19 111/170/19
f 73/195/20 66/220/20 82/219/20 70/218/20 76/217/20 84/216/20 72/215/20 78/214/20 64/213/20 68/212/20 75/211/20 62/210/20 85/209/20 79/208/20 65/207/20 81/206/20 69/205/20 63/204/20 83/203/20 71/202/20 77/201/20 80/200/20 67/199/20 74/198/20 61/197/20 112/196/20
f 112/221/21 61/167/21 86/168/21 111/222/21
f 73/195/22 112/196/22 111/222/22 98/171/22
